<mxfile host="app.diagrams.net" modified="2024-03-20T03:35:38.863Z" agent="Mozilla/5.0 (Windows NT 10.0; Win64; x64) AppleWebKit/537.36 (KHTML, like Gecko) Chrome/122.0.0.0 Safari/537.36" etag="s2rv0cEIbl_0tclPbxSu" version="24.0.7" type="device">
  <diagram name="Page-1" id="f1b7ffb7-ca1e-a977-7cf5-a751b3c06c05">
    <mxGraphModel dx="2868" dy="1476" grid="1" gridSize="10" guides="1" tooltips="1" connect="1" arrows="1" fold="1" page="1" pageScale="1" pageWidth="826" pageHeight="1169" background="none" math="0" shadow="0">
      <root>
        <mxCell id="0" />
        <mxCell id="1" parent="0" />
        <mxCell id="wx1ou6AgjwX1l1x-LxHl-63" value="" style="rounded=1;whiteSpace=wrap;html=1;arcSize=8;" parent="1" vertex="1">
          <mxGeometry width="820" height="1160" as="geometry" />
        </mxCell>
        <mxCell id="wx1ou6AgjwX1l1x-LxHl-66" value="&lt;font style=&quot;font-size: 24px;&quot;&gt;white filled with black outline and text&lt;/font&gt;" style="text;strokeColor=none;align=center;fillColor=none;html=1;verticalAlign=middle;whiteSpace=wrap;rounded=0;" parent="1" vertex="1">
          <mxGeometry x="1090" y="390" width="240" height="30" as="geometry" />
        </mxCell>
        <mxCell id="qxfjdc0F1J5jJAEWJA14-16" style="edgeStyle=orthogonalEdgeStyle;rounded=0;orthogonalLoop=1;jettySize=auto;html=1;exitX=1;exitY=0.5;exitDx=0;exitDy=0;" edge="1" parent="1" source="wx1ou6AgjwX1l1x-LxHl-68">
          <mxGeometry relative="1" as="geometry">
            <mxPoint x="1100" y="420" as="targetPoint" />
          </mxGeometry>
        </mxCell>
        <mxCell id="wx1ou6AgjwX1l1x-LxHl-68" value="Password input" style="rounded=1;whiteSpace=wrap;html=1;fontSize=24;" parent="1" vertex="1">
          <mxGeometry x="160" y="644.5" width="510" height="60" as="geometry" />
        </mxCell>
        <mxCell id="qxfjdc0F1J5jJAEWJA14-15" style="edgeStyle=orthogonalEdgeStyle;rounded=0;orthogonalLoop=1;jettySize=auto;html=1;exitX=1;exitY=0.5;exitDx=0;exitDy=0;" edge="1" parent="1" source="wx1ou6AgjwX1l1x-LxHl-70">
          <mxGeometry relative="1" as="geometry">
            <mxPoint x="1100" y="400" as="targetPoint" />
          </mxGeometry>
        </mxCell>
        <mxCell id="wx1ou6AgjwX1l1x-LxHl-70" value="Email input" style="rounded=1;whiteSpace=wrap;html=1;fontSize=24;" parent="1" vertex="1">
          <mxGeometry x="157" y="554.5" width="510" height="60" as="geometry" />
        </mxCell>
        <mxCell id="wx1ou6AgjwX1l1x-LxHl-73" style="edgeStyle=orthogonalEdgeStyle;rounded=0;orthogonalLoop=1;jettySize=auto;html=1;exitX=1;exitY=0.5;exitDx=0;exitDy=0;" parent="1" source="wx1ou6AgjwX1l1x-LxHl-74" edge="1">
          <mxGeometry relative="1" as="geometry">
            <mxPoint x="950" y="79.81818181818176" as="targetPoint" />
          </mxGeometry>
        </mxCell>
        <mxCell id="wx1ou6AgjwX1l1x-LxHl-74" value="IMG BTN&lt;div&gt;Logo&lt;/div&gt;" style="rounded=1;whiteSpace=wrap;html=1;" parent="1" vertex="1">
          <mxGeometry x="40" y="30" width="180" height="100" as="geometry" />
        </mxCell>
        <mxCell id="wx1ou6AgjwX1l1x-LxHl-75" value="&lt;font style=&quot;font-size: 24px;&quot;&gt;Goes to home page through logo click&amp;nbsp;&lt;/font&gt;" style="text;html=1;align=center;verticalAlign=middle;whiteSpace=wrap;rounded=0;" parent="1" vertex="1">
          <mxGeometry x="1019" y="65" width="220" height="30" as="geometry" />
        </mxCell>
        <mxCell id="wx1ou6AgjwX1l1x-LxHl-76" style="edgeStyle=orthogonalEdgeStyle;rounded=0;orthogonalLoop=1;jettySize=auto;html=1;exitX=1;exitY=0.5;exitDx=0;exitDy=0;" parent="1" source="wx1ou6AgjwX1l1x-LxHl-77" edge="1">
          <mxGeometry relative="1" as="geometry">
            <mxPoint x="1260.0000000000005" y="540" as="targetPoint" />
          </mxGeometry>
        </mxCell>
        <mxCell id="wx1ou6AgjwX1l1x-LxHl-77" value="&lt;font style=&quot;font-size: 24px;&quot;&gt;Login Instead Btn&lt;/font&gt;" style="rounded=1;whiteSpace=wrap;html=1;" parent="1" vertex="1">
          <mxGeometry x="70" y="1040" width="680" height="60" as="geometry" />
        </mxCell>
        <mxCell id="wx1ou6AgjwX1l1x-LxHl-80" value="&lt;font style=&quot;font-size: 24px;&quot;&gt;light Orange with white text button&lt;/font&gt;" style="text;strokeColor=none;align=center;fillColor=none;html=1;verticalAlign=middle;whiteSpace=wrap;rounded=0;" parent="1" vertex="1">
          <mxGeometry x="1180" y="500" width="210" height="30" as="geometry" />
        </mxCell>
        <mxCell id="qxfjdc0F1J5jJAEWJA14-12" style="edgeStyle=orthogonalEdgeStyle;rounded=0;orthogonalLoop=1;jettySize=auto;html=1;exitX=0.5;exitY=0;exitDx=0;exitDy=0;entryX=0.5;entryY=0;entryDx=0;entryDy=0;" edge="1" parent="1" source="qxfjdc0F1J5jJAEWJA14-2" target="wx1ou6AgjwX1l1x-LxHl-66">
          <mxGeometry relative="1" as="geometry" />
        </mxCell>
        <mxCell id="qxfjdc0F1J5jJAEWJA14-2" value="User btn" style="rounded=1;whiteSpace=wrap;html=1;fontSize=24;" vertex="1" parent="1">
          <mxGeometry x="157" y="354.5" width="130" height="60" as="geometry" />
        </mxCell>
        <mxCell id="qxfjdc0F1J5jJAEWJA14-11" style="edgeStyle=orthogonalEdgeStyle;rounded=0;orthogonalLoop=1;jettySize=auto;html=1;exitX=0.75;exitY=0;exitDx=0;exitDy=0;entryX=0.25;entryY=0;entryDx=0;entryDy=0;" edge="1" parent="1" source="qxfjdc0F1J5jJAEWJA14-3" target="wx1ou6AgjwX1l1x-LxHl-66">
          <mxGeometry relative="1" as="geometry" />
        </mxCell>
        <mxCell id="qxfjdc0F1J5jJAEWJA14-3" value="Supplier btn" style="rounded=1;whiteSpace=wrap;html=1;fontSize=24;" vertex="1" parent="1">
          <mxGeometry x="347" y="354.5" width="130" height="60" as="geometry" />
        </mxCell>
        <mxCell id="qxfjdc0F1J5jJAEWJA14-10" style="edgeStyle=orthogonalEdgeStyle;rounded=0;orthogonalLoop=1;jettySize=auto;html=1;exitX=1;exitY=0.5;exitDx=0;exitDy=0;entryX=0;entryY=0.5;entryDx=0;entryDy=0;" edge="1" parent="1" source="qxfjdc0F1J5jJAEWJA14-4" target="wx1ou6AgjwX1l1x-LxHl-66">
          <mxGeometry relative="1" as="geometry" />
        </mxCell>
        <mxCell id="qxfjdc0F1J5jJAEWJA14-4" value="Admin btn" style="rounded=1;whiteSpace=wrap;html=1;fontSize=24;" vertex="1" parent="1">
          <mxGeometry x="537" y="354.5" width="130" height="60" as="geometry" />
        </mxCell>
        <mxCell id="qxfjdc0F1J5jJAEWJA14-14" style="edgeStyle=orthogonalEdgeStyle;rounded=0;orthogonalLoop=1;jettySize=auto;html=1;exitX=1;exitY=0;exitDx=0;exitDy=0;" edge="1" parent="1" source="qxfjdc0F1J5jJAEWJA14-5">
          <mxGeometry relative="1" as="geometry">
            <mxPoint x="1100" y="410" as="targetPoint" />
          </mxGeometry>
        </mxCell>
        <mxCell id="qxfjdc0F1J5jJAEWJA14-5" value="First Name" style="rounded=1;whiteSpace=wrap;html=1;fontSize=24;" vertex="1" parent="1">
          <mxGeometry x="157" y="454.5" width="225" height="60" as="geometry" />
        </mxCell>
        <mxCell id="qxfjdc0F1J5jJAEWJA14-13" style="edgeStyle=orthogonalEdgeStyle;rounded=0;orthogonalLoop=1;jettySize=auto;html=1;exitX=1;exitY=0.25;exitDx=0;exitDy=0;entryX=0;entryY=1;entryDx=0;entryDy=0;" edge="1" parent="1" source="qxfjdc0F1J5jJAEWJA14-6" target="wx1ou6AgjwX1l1x-LxHl-66">
          <mxGeometry relative="1" as="geometry" />
        </mxCell>
        <mxCell id="qxfjdc0F1J5jJAEWJA14-6" value="Last Name" style="rounded=1;whiteSpace=wrap;html=1;fontSize=24;" vertex="1" parent="1">
          <mxGeometry x="442" y="454.5" width="225" height="60" as="geometry" />
        </mxCell>
        <mxCell id="qxfjdc0F1J5jJAEWJA14-17" style="edgeStyle=orthogonalEdgeStyle;rounded=0;orthogonalLoop=1;jettySize=auto;html=1;exitX=1;exitY=0.5;exitDx=0;exitDy=0;entryX=0.25;entryY=1;entryDx=0;entryDy=0;" edge="1" parent="1" source="qxfjdc0F1J5jJAEWJA14-7" target="wx1ou6AgjwX1l1x-LxHl-80">
          <mxGeometry relative="1" as="geometry" />
        </mxCell>
        <mxCell id="qxfjdc0F1J5jJAEWJA14-7" value="&lt;span style=&quot;font-size: 24px;&quot;&gt;Register Btn&lt;/span&gt;" style="rounded=1;whiteSpace=wrap;html=1;" vertex="1" parent="1">
          <mxGeometry x="311" y="744.5" width="208" height="70" as="geometry" />
        </mxCell>
        <mxCell id="qxfjdc0F1J5jJAEWJA14-8" value="&lt;font style=&quot;font-size: 24px;&quot;&gt;&amp;nbsp;Background color&amp;nbsp;#CCE8EE (extremely Light blue)&lt;/font&gt;" style="text;strokeColor=none;align=center;fillColor=none;html=1;verticalAlign=middle;whiteSpace=wrap;rounded=0;" vertex="1" parent="1">
          <mxGeometry x="1330" y="240" width="240" height="130" as="geometry" />
        </mxCell>
        <mxCell id="qxfjdc0F1J5jJAEWJA14-9" value="&lt;font style=&quot;font-size: 24px;&quot;&gt;All text is Font&amp;nbsp;&lt;/font&gt;&lt;div&gt;&lt;font style=&quot;&quot;&gt;&lt;font style=&quot;font-size: 24px;&quot;&gt;Montserrat&lt;/font&gt;&lt;br&gt;&lt;/font&gt;&lt;/div&gt;" style="text;strokeColor=none;align=center;fillColor=none;html=1;verticalAlign=middle;whiteSpace=wrap;rounded=0;" vertex="1" parent="1">
          <mxGeometry x="1330" y="160" width="240" height="90" as="geometry" />
        </mxCell>
      </root>
    </mxGraphModel>
  </diagram>
</mxfile>
